<svg xmlns="http://www.w3.org/2000/svg" width="440" height="410" viewBox="0 0 440 410" role="img" aria-labelledby="hex-title hex-description">
  <title id="hex-title">Hex: a game with no middle ground</title>
  <desc id="hex-description">A red and blue diamond Hex board with the proof’s coastline traced from the top to the left corner.</desc>
  <rect width="440" height="410" fill="#fcfcf9"/>
  <g stroke="#fcfcf9" stroke-width="2"><polygon points="238.20,68.42 238.20,89.43 220.00,99.94 201.80,89.43 201.80,68.42 220.00,57.91" fill="#d8e5ed"/><polygon points="256.39,99.94 256.39,120.95 238.20,131.46 220.00,120.95 220.00,99.94 238.20,89.43" fill="#ead6d2"/><polygon points="274.59,131.46 274.59,152.47 256.39,162.97 238.20,152.47 238.20,131.46 256.39,120.95" fill="#d8e5ed"/><polygon points="292.79,162.97 292.79,183.99 274.59,194.49 256.39,183.99 256.39,162.97 274.59,152.47" fill="#d8e5ed"/><polygon points="310.99,194.49 310.99,215.51 292.79,226.01 274.59,215.51 274.59,194.49 292.79,183.99" fill="#ead6d2"/><polygon points="220.00,99.94 220.00,120.95 201.80,131.46 183.61,120.95 183.61,99.94 201.80,89.43" fill="#d8e5ed"/><polygon points="238.20,131.46 238.20,152.47 220.00,162.97 201.80,152.47 201.80,131.46 220.00,120.95" fill="#ead6d2"/><polygon points="256.39,162.97 256.39,183.99 238.20,194.49 220.00,183.99 220.00,162.97 238.20,152.47" fill="#ead6d2"/><polygon points="274.59,194.49 274.59,215.51 256.39,226.01 238.20,215.51 238.20,194.49 256.39,183.99" fill="#d8e5ed"/><polygon points="292.79,226.01 292.79,247.03 274.59,257.53 256.39,247.03 256.39,226.01 274.59,215.51" fill="#d8e5ed"/><polygon points="201.80,131.46 201.80,152.47 183.61,162.97 165.41,152.47 165.41,131.46 183.61,120.95" fill="#ead6d2"/><polygon points="220.00,162.97 220.00,183.99 201.80,194.49 183.61,183.99 183.61,162.97 201.80,152.47" fill="#d8e5ed"/><polygon points="238.20,194.49 238.20,215.51 220.00,226.01 201.80,215.51 201.80,194.49 220.00,183.99" fill="#ead6d2"/><polygon points="256.39,226.01 256.39,247.03 238.20,257.53 220.00,247.03 220.00,226.01 238.20,215.51" fill="#d8e5ed"/><polygon points="274.59,257.53 274.59,278.54 256.39,289.05 238.20,278.54 238.20,257.53 256.39,247.03" fill="#ead6d2"/><polygon points="183.61,162.97 183.61,183.99 165.41,194.49 147.21,183.99 147.21,162.97 165.41,152.47" fill="#ead6d2"/><polygon points="201.80,194.49 201.80,215.51 183.61,226.01 165.41,215.51 165.41,194.49 183.61,183.99" fill="#ead6d2"/><polygon points="220.00,226.01 220.00,247.03 201.80,257.53 183.61,247.03 183.61,226.01 201.80,215.51" fill="#d8e5ed"/><polygon points="238.20,257.53 238.20,278.54 220.00,289.05 201.80,278.54 201.80,257.53 220.00,247.03" fill="#ead6d2"/><polygon points="256.39,289.05 256.39,310.06 238.20,320.57 220.00,310.06 220.00,289.05 238.20,278.54" fill="#d8e5ed"/><polygon points="165.41,194.49 165.41,215.51 147.21,226.01 129.01,215.51 129.01,194.49 147.21,183.99" fill="#d8e5ed"/><polygon points="183.61,226.01 183.61,247.03 165.41,257.53 147.21,247.03 147.21,226.01 165.41,215.51" fill="#ead6d2"/><polygon points="201.80,257.53 201.80,278.54 183.61,289.05 165.41,278.54 165.41,257.53 183.61,247.03" fill="#d8e5ed"/><polygon points="220.00,289.05 220.00,310.06 201.80,320.57 183.61,310.06 183.61,289.05 201.80,278.54" fill="#ead6d2"/><polygon points="238.20,320.57 238.20,341.58 220.00,352.09 201.80,341.58 201.80,320.57 220.00,310.06" fill="#ead6d2"/></g><g fill="none" stroke-width="6" stroke-linecap="round"><path d="M238.20,68.42 L238.20,89.43" stroke="#a74740"/><path d="M201.80,89.43 L201.80,68.42" stroke="#306a97"/><path d="M201.80,68.42 L220.00,57.91" stroke="#306a97"/><path d="M220.00,57.91 L238.20,68.42" stroke="#a74740"/><path d="M256.39,99.94 L256.39,120.95" stroke="#a74740"/><path d="M238.20,89.43 L256.39,99.94" stroke="#a74740"/><path d="M274.59,131.46 L274.59,152.47" stroke="#a74740"/><path d="M256.39,120.95 L274.59,131.46" stroke="#a74740"/><path d="M292.79,162.97 L292.79,183.99" stroke="#a74740"/><path d="M274.59,152.47 L292.79,162.97" stroke="#a74740"/><path d="M310.99,194.49 L310.99,215.51" stroke="#a74740"/><path d="M310.99,215.51 L292.79,226.01" stroke="#306a97"/><path d="M292.79,183.99 L310.99,194.49" stroke="#a74740"/><path d="M183.61,120.95 L183.61,99.94" stroke="#306a97"/><path d="M183.61,99.94 L201.80,89.43" stroke="#306a97"/><path d="M292.79,226.01 L292.79,247.03" stroke="#306a97"/><path d="M292.79,247.03 L274.59,257.53" stroke="#306a97"/><path d="M165.41,152.47 L165.41,131.46" stroke="#306a97"/><path d="M165.41,131.46 L183.61,120.95" stroke="#306a97"/><path d="M274.59,257.53 L274.59,278.54" stroke="#306a97"/><path d="M274.59,278.54 L256.39,289.05" stroke="#306a97"/><path d="M147.21,183.99 L147.21,162.97" stroke="#306a97"/><path d="M147.21,162.97 L165.41,152.47" stroke="#306a97"/><path d="M256.39,289.05 L256.39,310.06" stroke="#306a97"/><path d="M256.39,310.06 L238.20,320.57" stroke="#306a97"/><path d="M147.21,226.01 L129.01,215.51" stroke="#a74740"/><path d="M129.01,215.51 L129.01,194.49" stroke="#a74740"/><path d="M129.01,194.49 L147.21,183.99" stroke="#306a97"/><path d="M165.41,257.53 L147.21,247.03" stroke="#a74740"/><path d="M147.21,247.03 L147.21,226.01" stroke="#a74740"/><path d="M183.61,289.05 L165.41,278.54" stroke="#a74740"/><path d="M165.41,278.54 L165.41,257.53" stroke="#a74740"/><path d="M201.80,320.57 L183.61,310.06" stroke="#a74740"/><path d="M183.61,310.06 L183.61,289.05" stroke="#a74740"/><path d="M238.20,320.57 L238.20,341.58" stroke="#306a97"/><path d="M238.20,341.58 L220.00,352.09" stroke="#306a97"/><path d="M220.00,352.09 L201.80,341.58" stroke="#a74740"/><path d="M201.80,341.58 L201.80,320.57" stroke="#a74740"/><path d="M220.00,39.00 L220.00,57.91 L238.20,68.42 L238.20,89.43 L220.00,99.94 L220.00,120.95 L201.80,131.46 L183.61,120.95 L165.41,131.46 L165.41,152.47 L147.21,162.97 L147.21,183.99 L165.41,194.49 L165.41,215.51 L147.21,226.01 L129.01,215.51 L129.01,194.49 L112.63,185.04" stroke="#fcfcf9" stroke-width="10"/><path d="M220.00,39.00 L220.00,57.91 L238.20,68.42 L238.20,89.43 L220.00,99.94 L220.00,120.95 L201.80,131.46 L183.61,120.95 L165.41,131.46 L165.41,152.47 L147.21,162.97 L147.21,183.99 L165.41,194.49 L165.41,215.51 L147.21,226.01 L129.01,215.51 L129.01,194.49 L112.63,185.04" stroke="#285b46" stroke-width="5" stroke-linejoin="round"/></g>
</svg>
