<svg xmlns="http://www.w3.org/2000/svg" width="440" height="410" viewBox="0 0 440 410" role="img" aria-labelledby="title description"><title id="title">Hex</title><desc id="description">An upright diamond of twenty-five hexagons. Red connects the upper-right and lower-left sides; Blue connects the upper-left and lower-right sides.</desc><rect width="440" height="410" fill="#fcfcf9"/><g fill="#fcfcf9" stroke="#cdd4cb" stroke-width="1.8"><polygon points="241.16,46.21 241.16,70.64 220.00,82.86 198.84,70.64 198.84,46.21 220.00,34.00"/><polygon points="262.31,82.86 262.31,107.29 241.16,119.50 220.00,107.29 220.00,82.86 241.16,70.64"/><polygon points="283.47,119.50 283.47,143.93 262.31,156.14 241.16,143.93 241.16,119.50 262.31,107.29"/><polygon points="304.62,156.14 304.62,180.57 283.47,192.79 262.31,180.57 262.31,156.14 283.47,143.93"/><polygon points="325.78,192.79 325.78,217.21 304.62,229.43 283.47,217.21 283.47,192.79 304.62,180.57"/><polygon points="220.00,82.86 220.00,107.29 198.84,119.50 177.69,107.29 177.69,82.86 198.84,70.64"/><polygon points="241.16,119.50 241.16,143.93 220.00,156.14 198.84,143.93 198.84,119.50 220.00,107.29"/><polygon points="262.31,156.14 262.31,180.57 241.16,192.79 220.00,180.57 220.00,156.14 241.16,143.93"/><polygon points="283.47,192.79 283.47,217.21 262.31,229.43 241.16,217.21 241.16,192.79 262.31,180.57"/><polygon points="304.62,229.43 304.62,253.86 283.47,266.07 262.31,253.86 262.31,229.43 283.47,217.21"/><polygon points="198.84,119.50 198.84,143.93 177.69,156.14 156.53,143.93 156.53,119.50 177.69,107.29"/><polygon points="220.00,156.14 220.00,180.57 198.84,192.79 177.69,180.57 177.69,156.14 198.84,143.93"/><polygon points="241.16,192.79 241.16,217.21 220.00,229.43 198.84,217.21 198.84,192.79 220.00,180.57"/><polygon points="262.31,229.43 262.31,253.86 241.16,266.07 220.00,253.86 220.00,229.43 241.16,217.21"/><polygon points="283.47,266.07 283.47,290.50 262.31,302.71 241.16,290.50 241.16,266.07 262.31,253.86"/><polygon points="177.69,156.14 177.69,180.57 156.53,192.79 135.38,180.57 135.38,156.14 156.53,143.93"/><polygon points="198.84,192.79 198.84,217.21 177.69,229.43 156.53,217.21 156.53,192.79 177.69,180.57"/><polygon points="220.00,229.43 220.00,253.86 198.84,266.07 177.69,253.86 177.69,229.43 198.84,217.21"/><polygon points="241.16,266.07 241.16,290.50 220.00,302.71 198.84,290.50 198.84,266.07 220.00,253.86"/><polygon points="262.31,302.71 262.31,327.14 241.16,339.36 220.00,327.14 220.00,302.71 241.16,290.50"/><polygon points="156.53,192.79 156.53,217.21 135.38,229.43 114.22,217.21 114.22,192.79 135.38,180.57"/><polygon points="177.69,229.43 177.69,253.86 156.53,266.07 135.38,253.86 135.38,229.43 156.53,217.21"/><polygon points="198.84,266.07 198.84,290.50 177.69,302.71 156.53,290.50 156.53,266.07 177.69,253.86"/><polygon points="220.00,302.71 220.00,327.14 198.84,339.36 177.69,327.14 177.69,302.71 198.84,290.50"/><polygon points="241.16,339.36 241.16,363.79 220.00,376.00 198.84,363.79 198.84,339.36 220.00,327.14"/></g><g fill="none" stroke-width="6" stroke-linecap="round"><path d="M241.16,46.21L241.16,70.64" stroke="#a74740"/><path d="M198.84,70.64L198.84,46.21" stroke="#306a97"/><path d="M198.84,46.21L220.00,34.00" stroke="#306a97"/><path d="M220.00,34.00L241.16,46.21" stroke="#a74740"/><path d="M262.31,82.86L262.31,107.29" stroke="#a74740"/><path d="M241.16,70.64L262.31,82.86" stroke="#a74740"/><path d="M283.47,119.50L283.47,143.93" stroke="#a74740"/><path d="M262.31,107.29L283.47,119.50" stroke="#a74740"/><path d="M304.62,156.14L304.62,180.57" stroke="#a74740"/><path d="M283.47,143.93L304.62,156.14" stroke="#a74740"/><path d="M325.78,192.79L325.78,217.21" stroke="#a74740"/><path d="M325.78,217.21L304.62,229.43" stroke="#306a97"/><path d="M304.62,180.57L325.78,192.79" stroke="#a74740"/><path d="M177.69,107.29L177.69,82.86" stroke="#306a97"/><path d="M177.69,82.86L198.84,70.64" stroke="#306a97"/><path d="M304.62,229.43L304.62,253.86" stroke="#306a97"/><path d="M304.62,253.86L283.47,266.07" stroke="#306a97"/><path d="M156.53,143.93L156.53,119.50" stroke="#306a97"/><path d="M156.53,119.50L177.69,107.29" stroke="#306a97"/><path d="M283.47,266.07L283.47,290.50" stroke="#306a97"/><path d="M283.47,290.50L262.31,302.71" stroke="#306a97"/><path d="M135.38,180.57L135.38,156.14" stroke="#306a97"/><path d="M135.38,156.14L156.53,143.93" stroke="#306a97"/><path d="M262.31,302.71L262.31,327.14" stroke="#306a97"/><path d="M262.31,327.14L241.16,339.36" stroke="#306a97"/><path d="M135.38,229.43L114.22,217.21" stroke="#a74740"/><path d="M114.22,217.21L114.22,192.79" stroke="#a74740"/><path d="M114.22,192.79L135.38,180.57" stroke="#306a97"/><path d="M156.53,266.07L135.38,253.86" stroke="#a74740"/><path d="M135.38,253.86L135.38,229.43" stroke="#a74740"/><path d="M177.69,302.71L156.53,290.50" stroke="#a74740"/><path d="M156.53,290.50L156.53,266.07" stroke="#a74740"/><path d="M198.84,339.36L177.69,327.14" stroke="#a74740"/><path d="M177.69,327.14L177.69,302.71" stroke="#a74740"/><path d="M241.16,339.36L241.16,363.79" stroke="#306a97"/><path d="M241.16,363.79L220.00,376.00" stroke="#306a97"/><path d="M220.00,376.00L198.84,363.79" stroke="#a74740"/><path d="M198.84,363.79L198.84,339.36" stroke="#a74740"/></g></svg>
