<svg xmlns="http://www.w3.org/2000/svg" width="440" height="410" viewBox="0 0 440 410" role="img" aria-labelledby="problem-woven-5-title problem-woven-5-description">
  <title id="problem-woven-5-title">Woven loop</title>
  <desc id="problem-woven-5-description">A green loop woven into a five-lobed knot.</desc>
  <rect width="440" height="410" fill="#fcfcf9"/>
  <path d="M220.00,55.00L224.77,55.20L229.52,55.81L234.21,56.82L238.82,58.21L243.32,60.00L247.69,62.14L251.90,64.65L255.93,67.48L259.77,70.64L263.39,74.08L266.77,77.79L269.91,81.75L272.80,85.91L275.42,90.27L277.77,94.78L279.85,99.42L281.65,104.16L283.19,108.97L284.47,113.81L285.49,118.67L286.28,123.52L286.83,128.32L287.17,133.05L287.31,137.70L287.27,142.23L287.09,146.64L286.76,150.90L286.34,155.01L285.82,158.94L285.25,162.70L284.65,166.27L284.04,169.66L283.45,172.85L282.90,175.87L282.41,178.70L282.02,181.36L281.73,183.86L281.57,186.21L281.56,188.42L281.72,190.51L282.04,192.50L282.55,194.41L283.26,196.25L284.17,198.06L285.27,199.84L286.58,201.62L288.09,203.43L289.79,205.28L291.67,207.20L293.73,209.21L295.95,211.33L298.31,213.56L300.79,215.94L303.38,218.48L306.05,221.18L308.78,224.07L311.53,227.14L314.30,230.40L317.04,233.85L319.74,237.50L322.35,241.34L324.86,245.37L327.24,249.58L329.45,253.96L331.48,258.49L333.29,263.16L334.87,267.95L336.20,272.85L337.24,277.83L337.99,282.86L338.43,287.92L338.55,292.99L338.33,298.03L337.78,303.03L336.87,307.94L335.62,312.74L334.03,317.41L332.09,321.91L329.82,326.21L327.23,330.30L324.32,334.14L321.12,337.71L317.63,340.99L313.89,343.97L309.91,346.61L305.71,348.91L301.32,350.85L296.77,352.43L292.09,353.63L287.29,354.46L282.41,354.91L277.48,354.99L272.53,354.69L267.57,354.03L262.65,353.02L257.79,351.66L253.01,349.99L248.33,348.00L243.77,345.74L239.36,343.20L235.12,340.43L231.04,337.45L227.16,334.28L223.48,330.95L220.00,327.49L216.73,323.93L213.68,320.30L210.83,316.62L208.19,312.94L205.75,309.26L203.51,305.62L201.44,302.05L199.54,298.57L197.80,295.19L196.18,291.95L194.69,288.85L193.29,285.91L191.96,283.15L190.69,280.57L189.44,278.19L188.21,276.00L186.95,274.01L185.66,272.21L184.31,270.61L182.87,269.19L181.34,267.95L179.68,266.87L177.89,265.95L175.95,265.16L173.84,264.48L171.56,263.91L169.10,263.41L166.44,262.96L163.60,262.54L160.56,262.14L157.34,261.71L153.93,261.25L150.34,260.72L146.60,260.10L142.69,259.37L138.66,258.51L134.51,257.50L130.26,256.31L125.93,254.94L121.56,253.37L117.16,251.59L112.76,249.58L108.40,247.34L104.09,244.87L99.88,242.15L95.78,239.20L91.84,236.02L88.07,232.61L84.50,228.98L81.17,225.14L78.10,221.11L75.31,216.90L72.82,212.53L70.66,208.03L68.85,203.41L67.40,198.70L66.32,193.92L65.63,189.10L65.32,184.27L65.42,179.45L65.91,174.68L66.80,169.98L68.08,165.37L69.75,160.90L71.79,156.57L74.20,152.42L76.96,148.47L80.04,144.74L83.43,141.25L87.12,138.02L91.06,135.06L95.24,132.38L99.64,130.01L104.21,127.94L108.94,126.17L113.80,124.72L118.75,123.57L123.77,122.73L128.82,122.18L133.89,121.93L138.94,121.95L143.94,122.23L148.88,122.76L153.72,123.52L158.46,124.47L163.07,125.62L167.53,126.92L171.83,128.35L175.97,129.89L179.92,131.51L183.69,133.19L187.28,134.89L190.67,136.60L193.88,138.27L196.92,139.90L199.77,141.45L202.47,142.91L205.02,144.24L207.42,145.44L209.71,146.49L211.90,147.36L214.00,148.05L216.04,148.56L218.03,148.86L220.00,148.96L221.97,148.86L223.96,148.56L226.00,148.05L228.10,147.36L230.29,146.49L232.58,145.44L234.98,144.24L237.53,142.91L240.23,141.45L243.08,139.90L246.12,138.27L249.33,136.60L252.72,134.89L256.31,133.19L260.08,131.51L264.03,129.89L268.17,128.35L272.47,126.92L276.93,125.62L281.54,124.47L286.28,123.52L291.12,122.76L296.06,122.23L301.06,121.95L306.11,121.93L311.18,122.18L316.23,122.73L321.25,123.57L326.20,124.72L331.06,126.17L335.79,127.94L340.36,130.01L344.76,132.38L348.94,135.06L352.88,138.02L356.57,141.25L359.96,144.74L363.04,148.47L365.80,152.42L368.21,156.57L370.25,160.90L371.92,165.37L373.20,169.98L374.09,174.68L374.58,179.45L374.68,184.27L374.37,189.10L373.68,193.92L372.60,198.70L371.15,203.41L369.34,208.03L367.18,212.53L364.69,216.90L361.90,221.11L358.83,225.14L355.50,228.98L351.93,232.61L348.16,236.02L344.22,239.20L340.12,242.15L335.91,244.87L331.60,247.34L327.24,249.58L322.84,251.59L318.44,253.37L314.07,254.94L309.74,256.31L305.49,257.50L301.34,258.51L297.31,259.37L293.40,260.10L289.66,260.72L286.07,261.25L282.66,261.71L279.44,262.14L276.40,262.54L273.56,262.96L270.90,263.41L268.44,263.91L266.16,264.48L264.05,265.16L262.11,265.95L260.32,266.87L258.66,267.95L257.13,269.19L255.69,270.61L254.34,272.21L253.05,274.01L251.79,276.00L250.56,278.19L249.31,280.57L248.04,283.15L246.71,285.91L245.31,288.85L243.82,291.95L242.20,295.19L240.46,298.57L238.56,302.05L236.49,305.62L234.25,309.26L231.81,312.94L229.17,316.62L226.32,320.30L223.27,323.93L220.00,327.49L216.52,330.95L212.84,334.28L208.96,337.45L204.88,340.43L200.64,343.20L196.23,345.74L191.67,348.00L186.99,349.99L182.21,351.66L177.35,353.02L172.43,354.03L167.47,354.69L162.52,354.99L157.59,354.91L152.71,354.46L147.91,353.63L143.23,352.43L138.68,350.85L134.29,348.91L130.09,346.61L126.11,343.97L122.37,340.99L118.88,337.71L115.68,334.14L112.77,330.30L110.18,326.21L107.91,321.91L105.97,317.41L104.38,312.74L103.13,307.94L102.22,303.03L101.67,298.03L101.45,292.99L101.57,287.92L102.01,282.86L102.76,277.83L103.80,272.85L105.13,267.95L106.71,263.16L108.52,258.49L110.55,253.96L112.76,249.58L115.14,245.37L117.65,241.34L120.26,237.50L122.96,233.85L125.70,230.40L128.47,227.14L131.22,224.07L133.95,221.18L136.62,218.48L139.21,215.94L141.69,213.56L144.05,211.33L146.27,209.21L148.33,207.20L150.21,205.28L151.91,203.43L153.42,201.62L154.73,199.84L155.83,198.06L156.74,196.25L157.45,194.41L157.96,192.50L158.28,190.51L158.44,188.42L158.43,186.21L158.27,183.86L157.98,181.36L157.59,178.70L157.10,175.87L156.55,172.85L155.96,169.66L155.35,166.27L154.75,162.70L154.18,158.94L153.66,155.01L153.24,150.90L152.91,146.64L152.73,142.23L152.69,137.70L152.83,133.05L153.17,128.32L153.72,123.52L154.51,118.67L155.53,113.81L156.81,108.97L158.35,104.16L160.15,99.42L162.23,94.78L164.58,90.27L167.20,85.91L170.09,81.75L173.23,77.79L176.61,74.08L180.23,70.64L184.07,67.48L188.10,64.65L192.31,62.14L196.68,60.00L201.18,58.21L205.79,56.82L210.48,55.81L215.23,55.20Z" fill="none" stroke="#285b46" stroke-width="12" stroke-linejoin="round" stroke-linecap="round"/><path d="M279.99,99.77L280.90,102.09L281.75,104.44L282.54,106.80L283.26,109.18L283.91,111.57L284.50,113.96L285.04,116.35L285.51,118.74L285.92,121.13L286.28,123.52L286.58,125.89L286.82,128.25L287.01,130.59L287.16,132.91L287.25,135.22L287.31,137.49L287.31,139.75L287.28,141.97L287.21,144.16L287.10,146.32" fill="none" stroke="#fcfcf9" stroke-width="24" stroke-linejoin="round" stroke-linecap="butt"/><path d="M279.99,99.77L280.90,102.09L281.75,104.44L282.54,106.80L283.26,109.18L283.91,111.57L284.50,113.96L285.04,116.35L285.51,118.74L285.92,121.13L286.28,123.52L286.58,125.89L286.82,128.25L287.01,130.59L287.16,132.91L287.25,135.22L287.31,137.49L287.31,139.75L287.28,141.97L287.21,144.16L287.10,146.32" fill="none" stroke="#285b46" stroke-width="12" stroke-linejoin="round" stroke-linecap="butt"/><path d="M239.05,343.01L236.94,341.66L234.87,340.26L232.85,338.81L230.87,337.31L228.94,335.77L227.05,334.18L225.21,332.56L223.43,330.90L221.69,329.21L220.00,327.49L218.36,325.75L216.78,323.98L215.24,322.20L213.76,320.41L212.33,318.60L210.95,316.79L209.62,314.97L208.34,313.15L207.11,311.34L205.93,309.53" fill="none" stroke="#fcfcf9" stroke-width="24" stroke-linejoin="round" stroke-linecap="butt"/><path d="M239.05,343.01L236.94,341.66L234.87,340.26L232.85,338.81L230.87,337.31L228.94,335.77L227.05,334.18L225.21,332.56L223.43,330.90L221.69,329.21L220.00,327.49L218.36,325.75L216.78,323.98L215.24,322.20L213.76,320.41L212.33,318.60L210.95,316.79L209.62,314.97L208.34,313.15L207.11,311.34L205.93,309.53" fill="none" stroke="#285b46" stroke-width="12" stroke-linejoin="round" stroke-linecap="butt"/><path d="M129.19,122.16L131.69,122.01L134.18,121.92L136.67,121.91L139.16,121.96L141.63,122.07L144.09,122.25L146.53,122.48L148.95,122.77L151.35,123.12L153.72,123.52L156.07,123.96L158.39,124.46L160.68,125.00L162.93,125.58L165.15,126.20L167.34,126.86L169.48,127.54L171.59,128.26L173.65,129.01L175.67,129.78" fill="none" stroke="#fcfcf9" stroke-width="24" stroke-linejoin="round" stroke-linecap="butt"/><path d="M129.19,122.16L131.69,122.01L134.18,121.92L136.67,121.91L139.16,121.96L141.63,122.07L144.09,122.25L146.53,122.48L148.95,122.77L151.35,123.12L153.72,123.52L156.07,123.96L158.39,124.46L160.68,125.00L162.93,125.58L165.15,126.20L167.34,126.86L169.48,127.54L171.59,128.26L173.65,129.01L175.67,129.78" fill="none" stroke="#285b46" stroke-width="12" stroke-linejoin="round" stroke-linecap="butt"/><path d="M347.88,236.26L345.95,237.85L343.98,239.38L341.97,240.86L339.94,242.28L337.87,243.64L335.78,244.94L333.67,246.19L331.54,247.37L329.39,248.51L327.24,249.58L325.07,250.60L322.91,251.56L320.74,252.47L318.57,253.32L316.41,254.13L314.26,254.88L312.12,255.58L310.00,256.24L307.89,256.85L305.80,257.41" fill="none" stroke="#fcfcf9" stroke-width="24" stroke-linejoin="round" stroke-linecap="butt"/><path d="M347.88,236.26L345.95,237.85L343.98,239.38L341.97,240.86L339.94,242.28L337.87,243.64L335.78,244.94L333.67,246.19L331.54,247.37L329.39,248.51L327.24,249.58L325.07,250.60L322.91,251.56L320.74,252.47L318.57,253.32L316.41,254.13L314.26,254.88L312.12,255.58L310.00,256.24L307.89,256.85L305.80,257.41" fill="none" stroke="#285b46" stroke-width="12" stroke-linejoin="round" stroke-linecap="butt"/><path d="M103.89,272.49L104.52,270.07L105.21,267.67L105.97,265.30L106.78,262.95L107.65,260.64L108.58,258.35L109.55,256.10L110.58,253.89L111.65,251.72L112.76,249.58L113.92,247.48L115.10,245.43L116.32,243.42L117.57,241.46L118.85,239.54L120.15,237.67L121.46,235.84L122.80,234.06L124.14,232.33L125.50,230.64" fill="none" stroke="#fcfcf9" stroke-width="24" stroke-linejoin="round" stroke-linecap="butt"/><path d="M103.89,272.49L104.52,270.07L105.21,267.67L105.97,265.30L106.78,262.95L107.65,260.64L108.58,258.35L109.55,256.10L110.58,253.89L111.65,251.72L112.76,249.58L113.92,247.48L115.10,245.43L116.32,243.42L117.57,241.46L118.85,239.54L120.15,237.67L121.46,235.84L122.80,234.06L124.14,232.33L125.50,230.64" fill="none" stroke="#285b46" stroke-width="12" stroke-linejoin="round" stroke-linecap="butt"/>
</svg>
